<?xml version="1.0" encoding="iso-8859-1"?>
<!-- Uploaded to: SVG Repo, www.svgrepo.com, Generator: SVG Repo Mixer Tools -->
<svg fill="#ffffff" height="800px" width="800px" version="1.1" id="Layer_1" xmlns="http://www.w3.org/2000/svg" xmlns:xlink="http://www.w3.org/1999/xlink" 
	 viewBox="0 0 222.223 222.223" xml:space="preserve">
<g>
	<g>
		<g>
			<path d="M174.298,175.643l-45.23-31.664c-0.679-0.474-1.488-0.73-2.316-0.73H94.429c-0.829,0-1.638,0.257-2.316,0.73
				L44.03,177.636c-1.373,0.963-2.012,2.667-1.602,4.293l9.343,37.236c0.45,1.8,2.063,3.058,3.918,3.058h104.81
				c1.795,0,3.373-1.184,3.878-2.904l11.482-39.228C176.346,178.425,175.718,176.638,174.298,175.643z M157.473,214.141H58.842
				l-7.899-31.479l44.76-31.333h29.774l41.813,29.269L157.473,214.141z"/>
			<path d="M205.481,84.615C197.254,35.586,157.327,0,110.543,0C65.822,0,27.265,32.331,16.785,78.626
				c-0.244,1.081-0.036,2.214,0.58,3.133c0.616,0.923,1.578,1.551,2.671,1.74c4.731,0.821,9.58,1.239,14.41,1.239
				c17.539,0,34.56-5.52,48.449-15.629c14.398,23.418,40.416,37.776,69.03,37.776c19.125,0,37.642-6.562,52.135-18.482
				C205.177,87.484,205.721,86.039,205.481,84.615z M151.926,98.805c-27.269,0-51.898-14.421-64.267-37.634
				c-0.572-1.069-1.59-1.827-2.782-2.06c-0.261-0.055-0.525-0.079-0.785-0.079c-0.931,0-1.839,0.32-2.568,0.923
				C66.25,72.542,45.764,78.492,25.728,76.156C36.691,35.859,70.999,8.081,110.543,8.081c42.081,0,78.133,31.625,86.549,75.541
				C184.328,93.431,168.383,98.805,151.926,98.805z"/>
			<path d="M110.59,20.203c-13.368,0-24.242,10.873-24.242,24.241c0,13.368,10.874,24.243,24.242,24.243
				c13.368,0,24.242-10.874,24.242-24.242C134.832,31.077,123.958,20.203,110.59,20.203z M110.59,60.607
				c-8.914,0-16.162-7.248-16.162-16.162s7.249-16.162,16.162-16.162c8.914,0,16.162,7.248,16.162,16.162
				S119.504,60.607,110.59,60.607z"/>
			<path d="M110.59,32.324c-6.684,0-12.121,5.436-12.121,12.12c0,6.684,5.437,12.122,12.121,12.122
				c6.684,0,12.121-5.437,12.121-12.121S117.274,32.324,110.59,32.324z M110.59,48.484c-2.229,0-4.04-1.811-4.04-4.04
				c0-2.229,1.811-4.04,4.04-4.04s4.04,1.811,4.04,4.04C114.63,46.673,112.819,48.484,110.59,48.484z"/>
			<path d="M126.751,125.253c0-4.455,3.626-8.081,8.081-8.081c4.455,0,8.081,3.626,8.081,8.081c0,2.233,1.807,4.04,4.04,4.04
				s4.04-1.807,4.04-4.04c0-8.914-7.248-16.162-16.162-16.162c-8.912,0-16.16,7.248-16.16,16.162c0,2.233,1.807,4.04,4.04,4.04
				C124.944,129.293,126.751,127.486,126.751,125.253z"/>
			<path d="M78.266,125.253c0-4.455,3.626-8.081,8.081-8.081c4.455,0,8.081,3.626,8.081,8.081c0,2.233,1.807,4.04,4.04,4.04
				c2.233,0,4.04-1.807,4.04-4.04c0-8.914-7.248-16.162-16.162-16.162s-16.16,7.248-16.16,16.162c0,2.233,1.807,4.04,4.04,4.04
				C76.459,129.293,78.266,127.486,78.266,125.253z"/>
			<path d="M190.87,107.884c-2.131-0.615-4.384,0.623-4.995,2.77c-0.615,2.146,0.623,4.384,2.77,4.995
				c2.872,0.825,5.185,3.279,6.507,6.909c1.488,4.08,1.535,9.02,0.134,13.909c-2.719,9.47-10.322,15.952-16.667,14.137
				c-2.154-0.619-4.384,0.623-4.995,2.77c-0.615,2.143,0.623,4.38,2.77,4.995c1.436,0.414,2.896,0.612,4.356,0.612
				c9.415,0,18.845-8.235,22.301-20.285c1.87-6.518,1.76-13.234-0.308-18.908C200.513,113.664,196.295,109.438,190.87,107.884z"/>
			<path d="M47.558,153.374c-0.615-2.146-2.841-3.385-4.995-2.77c-6.364,1.811-13.952-4.668-16.667-14.133
				c-1.401-4.893-1.354-9.833,0.134-13.913c1.322-3.63,3.634-6.084,6.507-6.909c2.146-0.612,3.385-2.849,2.77-4.995
				c-0.612-2.15-2.869-3.381-4.995-2.77c-5.425,1.555-9.643,5.781-11.873,11.904c-2.067,5.674-2.178,12.389-0.308,18.912
				c3.457,12.05,12.887,20.281,22.301,20.281c1.46,0,2.92-0.197,4.356-0.612C46.934,157.753,48.173,155.516,47.558,153.374z"/>
		</g>
	</g>
</g>
</svg>